<?xml version="1.0" encoding="UTF-8"?><svg id="Layer_2" xmlns="http://www.w3.org/2000/svg" viewBox="0 0 396.85 100.34"><defs><style>.cls-1{fill:#262e65;}.cls-1,.cls-2{stroke-width:0px;}.cls-2{fill:#0096c5;}</style></defs><g id="Layer_1-2"><path class="cls-1" d="M49.59,68.8v13.85c-4.32-5.92-10.85-8.87-19.58-8.87s-13.11,3.46-13.11,10.37c0,3.46,1.18,5.97,3.54,7.51,2.36,1.54,6.18,2.32,11.46,2.32,4.98,0,9.13-.85,12.45-2.55,3.32-1.7,4.89-3.79,4.73-6.26,0-.1-.02-.24-.06-.41,1.44.85,2.15,2.06,2.15,3.61,0,3.58-2.08,6.47-6.23,8.67-4.15,2.2-9.62,3.3-16.39,3.3-7.79,0-14.49-1.52-20.11-4.57-5.62-3.04-8.44-6.67-8.44-10.89s2.83-8.12,8.5-11.5c5.66-3.38,12.09-5.08,19.27-5.08,6.21,0,11.72,1.24,16.52,3.72l5.3-3.23Z"/><path class="cls-1" d="M73.05,77.38c5.07,0,9.46,1.19,13.2,3.56,3.73,2.37,5.6,5.16,5.6,8.37,0,2.98-1.88,5.55-5.64,7.71-3.76,2.16-8.23,3.24-13.4,3.24s-9.54-1.1-13.38-3.29c-3.84-2.19-5.77-4.73-5.77-7.62,0-3.27,1.91-6.08,5.73-8.44,3.82-2.36,8.37-3.54,13.67-3.54ZM72.75,81.03c-2.08,0-3.78.71-5.1,2.14-1.32,1.43-1.97,3.27-1.97,5.53s.65,4.05,1.94,5.41c1.29,1.36,3,2.03,5.13,2.03s3.86-.68,5.14-2.03c1.29-1.35,1.93-3.16,1.93-5.42s-.66-4.09-1.98-5.52c-1.32-1.43-3.02-2.15-5.09-2.15Z"/><path class="cls-1" d="M110.9,78.09l12.47,11.4v-6.48l-7.36-4.92h20.52l-7.35,4.92v16.2h-10.36l-12.62-12.01v7.07l7.36,4.94h-20.52l7.35-4.94v-11.26l-7.35-4.92h17.85Z"/><path class="cls-1" d="M138.37,100.04v-10.58c1.79,2.17,4.25,3.86,7.39,5.08,3.13,1.22,6.59,1.83,10.38,1.83,3.98,0,5.97-.56,5.97-1.69,0-.53-.27-.88-.8-1.06-.53-.18-1.81-.35-3.84-.52l-4.37-.36c-5.09-.4-8.68-1.05-10.78-1.93-3.34-1.41-5.02-3.41-5.02-6,0-2.43,1.12-4.34,3.37-5.72,2.24-1.38,5.34-2.07,9.28-2.07s7.2.55,10.21,1.66l.84.31,5.62-1.83v8.93c-5.25-3.61-10.85-5.42-16.78-5.42-3.58,0-5.37.56-5.37,1.69,0,.53.44.92,1.31,1.19s2.51.51,4.91.71l4.25.36c5.34.45,8.91,1.13,10.72,2.04,3.03,1.53,4.55,3.57,4.55,6.13,0,2.29-1.2,4.11-3.6,5.47-2.4,1.36-5.63,2.03-9.68,2.03-4.34,0-8.79-.76-13.35-2.27l-5.21,2.04Z"/><path class="cls-1" d="M206.37,78.09l.68,10.21-7.67-6.47h-4.68v12.44l7.35,4.94h-25.04l7.35-4.94v-12.44h-4.68l-7.67,6.47.67-10.21h33.7Z"/><path class="cls-1" d="M238.78,78.09l-4.8,3.85,8.38,12.33,7.57,4.94h-25.23l6.95-4.33-.91-1.45h-11.53l-.89,1.45,6.04,4.33h-18.71l5.9-4.94,8.24-12.33-4.69-3.85h23.68ZM224.69,84.21l-3.54,5.72h7.31l-3.77-5.72Z"/><path class="cls-1" d="M266.18,78.09l12.47,11.4v-6.48l-7.36-4.92h20.52l-7.35,4.92v16.2h-10.36l-12.62-12.01v7.07l7.36,4.94h-20.52l7.35-4.94v-11.26l-7.35-4.92h17.85Z"/><path class="cls-1" d="M325.57,78.09l.67,10.21-7.67-6.47h-4.68v12.44l7.35,4.94h-25.04l7.35-4.94v-12.44h-4.68l-7.67,6.47.67-10.21h33.7Z"/><path class="cls-1" d="M327.55,78.09h24.69l-7.34,4.92v11.26l7.34,4.94h-24.69l7.35-4.94v-11.26l-7.35-4.92Z"/><path class="cls-1" d="M371.22,78.09l12.47,11.4v-6.48l-7.36-4.92h20.52l-7.35,4.92v16.2h-10.36l-12.62-12.01v7.07l7.36,4.94h-20.52l7.35-4.94v-11.26l-7.35-4.92h17.85Z"/><path class="cls-1" d="M224.48,57.27c-.7,0-1.19-.03-1.41-.04-5.06-.02-9.19-1.54-12.27-4.54-3.14-3.02-4.73-7.1-4.73-12.13,0-3.29.73-6.27,2.18-8.86,1.45-2.59,3.47-4.66,6.02-6.13,2.46-1.43,5.99-2.44,10.77-3.1,4.79-.66,8.53-1.44,11.14-2.31v-.62c.01-3.66-.81-5.1-1.3-5.63-1.38-1.54-3.62-2.3-6.7-2.3-2.86,0-4.94.51-6.2,1.52-.86.69-2.07,2.35-2.91,6.28l-.46,2.13-11.7-1.83.44-2.34c1.13-5.95,3.51-10.39,7.08-13.19C217.94,1.41,222.94,0,229.28,0c4.96,0,8.97.94,11.9,2.8,3.06,1.93,5.04,4.41,5.88,7.37.74,2.62,1.1,6.27,1.1,11.15v11.32c.05,1.06.32,11-6.42,18.04-5.71,5.96-13.97,6.6-17.25,6.6ZM236.15,31.89c-2.49.81-5.56,1.51-9.27,2.13-3.52.58-5.07,1.13-5.75,1.49-.85.44-1.48,1.05-1.93,1.85-.48.84-.72,1.81-.72,2.96,0,1.74.52,3.07,1.59,4.06,1.11,1.03,2.76,1.55,4.9,1.55s4.15-.53,5.92-1.61c1.77-1.07,3.05-2.46,3.92-4.23.88-1.79,1.33-4.56,1.35-8.21Z"/><path class="cls-1" d="M272.46,57.23c-11.46,0-18.47-6.28-20.29-18.17l-.34-2.22,11.91-2.16.29,2.43c.35,2.96,1.29,5.14,2.78,6.49,1.49,1.35,3.48,2,6.08,2s4.55-.57,5.84-1.69c1.23-1.07,1.81-2.33,1.81-3.97,0-1.26-.4-2.12-1.3-2.79-.36-.27-1.75-1.05-6.71-2.49-5.96-1.75-9.88-3.23-11.98-4.51-2.27-1.38-4.05-3.25-5.3-5.57-1.24-2.3-1.86-4.92-1.86-7.78,0-4.94,1.7-9.03,5.05-12.16,3.31-3.08,7.86-4.65,13.54-4.65,3.53,0,6.7.63,9.42,1.87,2.79,1.27,4.99,3.03,6.53,5.24,1.5,2.18,2.52,5.21,3.06,9.01l.32,2.24-11.75,1.87-.29-2.38c-.53-4.36-2.65-6.22-7.09-6.22-2.6,0-4.56.46-5.69,1.34-.99.78-1.44,1.65-1.44,2.83,0,1.11.39,1.88,1.28,2.52.23.17,1.5.88,7.31,2.7,6.4,1.94,10.3,3.41,12.28,4.63,2.13,1.3,3.8,3.11,4.99,5.36,1.16,2.21,1.74,4.82,1.74,7.78,0,5.46-1.86,9.96-5.52,13.38-3.61,3.37-8.54,5.08-14.65,5.08Z"/><polygon class="cls-1" points="104.21 56.45 104.21 .77 141.5 .77 137.66 11.41 116.21 11.44 116.21 21.78 139.75 21.75 136.07 33.05 115.93 33.05 115.93 45.15 142.4 45.15 138.73 56.45 104.21 56.45"/><path class="cls-2" d="M208.47,0h-26.16c-4.47,0-7.31,4.8-5.15,8.72l12.88,23.34L208.47,0Z"/><path class="cls-1" d="M150.47,0h-3.76l29.51,56.09,8.93-15.54-16.44-29.78c-3.67-6.65-10.66-10.78-18.25-10.78Z"/></g></svg>